<?xml version="1.0" encoding="UTF-8"?>
<svg id="Layer_1" xmlns="http://www.w3.org/2000/svg" version="1.1" viewBox="0 0 1000 1000">
  <!-- Generator: Adobe Illustrator 29.6.1, SVG Export Plug-In . SVG Version: 2.1.1 Build 9)  -->
  <defs>
    <style>
      .st0 {
        fill: none;
        stroke: #ed2024;
        stroke-miterlimit: 10;
        stroke-width: 53px;
      }
    </style>
  </defs>
  <path class="st0" d="M450.87,642.22"/>
  <g>
    <path d="M784.81,740.11c-29.77-42.35-118.69-157.04-195.97-254.78-20.92-26.46-40.99-51.16-60.16-74.04,33.75-31.06,67.49-60.62,98.51-86.24,54.03-44.62,80.14-60.85,87.02-63.52,15.52-8.08,20.38.37,21.2,1.86,1.88,3.41,5.81,15.91-3.86,39.24-7.46,17.99-17.53,41.23-30.98,64.49-5.69,9.85-5.2,21.83,3.39,29.29l2.54,2.21c8.06,6.19,23.05,2.75,32.27-9.55,36.63-48.89,65.24-110.94,43.08-151.22-6.89-12.53-18.08-21.63-32.37-26.32-12.38-4.06-27.28-4.82-44.28-2.24-8.01,1.21-24.67,3.74-104.26,68.73-33.24,27.14-69.91,59.1-106.75,92.97-22.82-26.08-44.13-49.16-63.79-69.09-60.89-61.72-105.62-87.46-139.68-92.62-18.26-2.77-34.07-1.69-47.01,3.21-14.86,5.62-25.95,16.12-32.08,30.36-8.23,19.13-11.01,54.01,22.43,111.57,18.52,31.88,44.52,63.62,73.39,89.99,11.42,10.43,29.29,8.95,38.8-3.25,8.51-10.92-.16-23.09-9.39-33.4-23.23-25.95-41.05-52.55-56.97-79.97-19.86-34.18-23.59-57.53-19.57-64.01,3.28-5.28,9.77-4.99,22.43-3.41,34.28,4.26,86.21,51.62,109.84,78.66,16.66,19.06,36.12,42,60.03,70.88-3.51,3.35-7.01,6.72-10.5,10.08-61.53,59.37-118.58,115.78-157.13,163.11-22.29,27.38-40.02,52.02-52.7,73.23-15.26,25.53-23.6,46.62-25.5,64.48-3.76,35.33,14.02,49.91,24.96,55.46,7.28,3.69,15.57,5.56,25,5.56,22.78,0,52.22-10.86,90.24-33.04,30.93-18.04,65.71-42.87,96.69-68.83,10.88-9.12,12.58-25.02,4.27-36.16-7.33-6.63-16.97-6.89-27.44.21-30.96,21.01-61.8,40.57-90.72,57.91-36.01,21.59-70.62,37.9-70.49,26.81.03-.68.09-1.45.18-2.31,3.4-31.99,64.36-117.78,213.55-262.6,4.41-4.28,8.85-8.55,13.31-12.82,58,71.1,138.1,171.46,255.07,319.57,9,11.4,24.72,14.82,36.69,6.59h0c12.15-8.35,15.15-25.01,6.67-37.07Z"/>
    <path d="M449.71,645.52l-3.37-3.71c.59.65,1.13,1.32,1.65,2,.59.53,1.17,1.09,1.72,1.7Z"/>
    <circle cx="657.04" cy="455.08" r="46.92"/>
  </g>
</svg>